<svg width="100pt" height="100pt" version="1.1" viewBox="0 0 100 100" xmlns="http://www.w3.org/2000/svg">
 <path d="m39 18c-1.1328 0.015625-2.2461 0.80859-2.6875 1.6562l-3.1875 6.3438h-13.125c-4.9336 0-9 4.0664-9 9v38c0 4.9336 4.0664 9 9 9h60c4.9336 0 9-4.0664 9-9v-38c0-4.9336-4.0664-9-9-9h-13.125l-3.1875-6.3438c-0.49609-0.99219-1.5781-1.6562-2.6875-1.6562zm1.875 6h18.25l3.1875 6.3438c0.49609 0.99219 1.5781 1.6562 2.6875 1.6562h15c1.7148 0 3 1.2852 3 3v38c0 1.7148-1.2852 3-3 3h-60c-1.7148 0-3-1.2852-3-3v-38c0-1.7148 1.2852-3 3-3h15c1.1094 0.003906 2.1914-0.66406 2.6875-1.6562zm9.125 12c-9.9062 0-18 8.0938-18 18s8.0938 18 18 18 18-8.0938 18-18-8.0938-18-18-18zm0 6c6.6641 0 12 5.3359 12 12s-5.3359 12-12 12-12-5.3359-12-12 5.3359-12 12-12z"/>
</svg>