<svg width="100pt" height="100pt" version="1.1" viewBox="0 0 100 100" xmlns="http://www.w3.org/2000/svg">
 <g>
  <path d="m31 80h32c6.0742 0 11-4.9258 11-11v-17h-6v17c0 1.3242-0.52734 2.5977-1.4648 3.5352s-2.2109 1.4648-3.5352 1.4648h-32c-2.7617 0-5-2.2383-5-5v-32c0-2.7617 2.2383-5 5-5h17v-6h-17c-6.0742 0-11 4.9258-11 11v32c0 6.0742 4.9258 11 11 11z"/>
  <path d="m51 40-3 6-6 3 6 3 3 6 3-6 6-3-6-3z"/>
  <path d="m69 42 3.6719-7.3281 7.3281-3.6719-7.3281-3.6719-3.6719-7.3281-3.6719 7.3281-7.3281 3.6719 7.3281 3.6719z"/>
 </g>
</svg>