<svg width="100pt" height="100pt" version="1.1" viewBox="0 0 100 100" xmlns="http://www.w3.org/2000/svg">
 <path d="m35.719 57.145h3.5664c0.38672 0 0.76172-0.12891 1.0703-0.35938 0.78906-0.58984 0.94922-1.7109 0.35938-2.5l-7.1445-9.5234c-0.10156-0.13672-0.21875-0.25391-0.35547-0.35547-0.78906-0.59375-1.9102-0.43359-2.5 0.35547l-7.1445 9.5234c-0.23047 0.30859-0.35547 0.6875-0.35547 1.0703 0 0.98828 0.80078 1.7891 1.7852 1.7891h3.5742c0 3.707 0.95703 7.4023 2.8672 10.711 2.9336 5.0859 7.543 8.582 13.051 9.9961 5.4258 1.3906 11.332 0.67188 16.223-2.1523 1.707-0.98438 2.293-3.168 1.3086-4.8789-0.98828-1.707-3.1719-2.293-4.8789-1.3047-3.2383 1.8672-7.2227 2.3516-10.879 1.4141-3.6445-0.93359-6.6641-3.2227-8.6367-6.6445-1.2734-2.2031-1.9141-4.668-1.9102-7.1406zm28.809-3.5742h-3.8125c-0.38672 0-0.76172 0.125-1.0703 0.35938-0.78906 0.58984-0.94922 1.7109-0.35938 2.5l7.1445 9.5234c0.10156 0.13281 0.21875 0.25391 0.35547 0.35547 0.78906 0.59375 1.9102 0.43359 2.5-0.35547l7.1445-9.5234c0.23047-0.30859 0.35547-0.6875 0.35547-1.0742 0-0.98438-0.80078-1.7852-1.7852-1.7852h-3.332c-0.035157-3.625-0.99609-7.2266-2.8711-10.477-2.8555-4.9414-7.5703-8.4961-12.996-9.9766-5.4609-1.4922-11.246-0.76953-16.277 2.1367-1.707 0.98438-2.293 3.168-1.3047 4.875 0.98438 1.7109 3.168 2.2969 4.875 1.3086 3.3711-1.9453 7.1914-2.4219 10.824-1.4297 3.6367 0.99219 6.793 3.3711 8.6914 6.6602 1.2383 2.1445 1.8789 4.5156 1.918 6.9023zm-39.527-32.141 3.4414-7.8672c1.707-3.8984 5.5586-6.418 9.8164-6.418h23.484c4.2578 0 8.1094 2.5195 9.8164 6.418l3.4414 7.8672h10.715c7.8906 0 14.285 6.3945 14.285 14.285v42.855c0 7.8906-6.3945 14.285-14.285 14.285h-71.43c-7.8906 0-14.285-6.3945-14.285-14.285v-42.855c0-7.8906 6.3945-14.285 14.285-14.285z" fill-rule="evenodd"/>
</svg>